<svg width="24" height="26" viewBox="0 0 24 26" fill="none" xmlns="http://www.w3.org/2000/svg">
<g id="Social Icons">
<path id="Vector" fill-rule="evenodd" clip-rule="evenodd" d="M8.1599 1H15.8398C18.2246 1 20.1598 2.93525 20.1598 5.32003C20.1598 6.99123 19.2095 8.44161 17.82 9.15996C19.2095 9.87835 20.1598 11.3288 20.1598 13C20.1598 15.3848 18.2246 17.32 15.8398 17.32C14.4832 17.32 13.2721 16.6938 12.48 15.7149V20.68C12.48 23.0648 10.5447 25 8.1599 25C5.77511 25 3.83984 23.0648 3.83984 20.68C3.83984 19.0088 4.79023 17.5583 6.1797 16.84C4.79023 16.1216 3.83984 14.6712 3.83984 13C3.83984 11.3288 4.79022 9.87835 6.17968 9.15996C4.79023 8.44161 3.83984 6.99123 3.83984 5.32003C3.83984 2.93525 5.77511 1 8.1599 1ZM4.79984 5.32003C4.79984 3.46545 6.3053 1.96 8.1599 1.96H11.5197V8.67994H8.1599L8.14949 8.67995C6.29965 8.67433 4.79984 7.17112 4.79984 5.32003ZM11.52 12.9543C11.5198 12.9695 11.5197 12.9847 11.5197 13C11.5197 13.0152 11.5198 13.0304 11.52 13.0457V16.3599H8.15988C6.3053 16.36 4.79984 14.8546 4.79984 13C4.79984 11.1488 6.29971 9.64553 8.14958 9.63996L8.1599 9.63997H11.5197L11.52 12.9543ZM12.48 13.0402V12.9597C12.5015 11.1282 13.9912 9.64734 15.826 9.63997H15.8398C15.8432 9.63997 15.8467 9.63996 15.8501 9.63996C17.7 9.64553 19.1998 11.1488 19.1998 13C19.1998 14.8546 17.6944 16.36 15.8398 16.36C13.9986 16.36 12.5016 14.8763 12.48 13.0402ZM13.1251 9.63997C12.8881 9.83174 12.6717 10.0481 12.48 10.2851V9.63997H13.1251ZM15.8502 8.67995C15.8467 8.67994 15.8433 8.67994 15.8398 8.67994C15.8345 8.67994 15.8293 8.67995 15.824 8.67997H12.48V1.96H15.8398C17.6944 1.96 19.1998 3.46545 19.1998 5.32003C19.1998 7.17112 17.7 8.67433 15.8502 8.67995ZM8.1599 17.3199C6.3053 17.3199 4.79984 18.8254 4.79984 20.68C4.79984 22.5345 6.3053 24.04 8.1599 24.04C10.0145 24.04 11.52 22.5345 11.52 20.68V17.3199H8.1599Z" stroke="#101023" stroke-width="1.5" stroke-linecap="round" stroke-linejoin="round"/>
</g>
</svg>
