<svg width="40" height="40" viewBox="0 0 40 40" fill="none" xmlns="http://www.w3.org/2000/svg">
<rect x="0.5" y="0.5" width="39" height="39" rx="19.5" fill="white"/>
<rect x="0.5" y="0.5" width="39" height="39" rx="19.5" stroke="#EAEAF5"/>
<path d="M13.6641 19.3143C13.8856 20.8364 14.6477 22.2278 15.811 23.2341C16.9743 24.2403 18.461 24.7941 19.9991 24.7941M19.9991 24.7941C21.5373 24.7941 23.024 24.2403 24.1873 23.2341C25.3506 22.2278 26.1127 20.8364 26.3342 19.3143M19.9991 24.7941V28M20.0001 12C19.2726 12 18.575 12.289 18.0606 12.8034C17.5462 13.3177 17.2572 14.0154 17.2572 14.7429V18.4C17.2572 19.1275 17.5462 19.8251 18.0606 20.3395C18.575 20.8539 19.2726 21.1429 20.0001 21.1429C20.7275 21.1429 21.4252 20.8539 21.9396 20.3395C22.4539 19.8251 22.7429 19.1275 22.7429 18.4V14.7429C22.7429 14.0154 22.4539 13.3177 21.9396 12.8034C21.4252 12.289 20.7275 12 20.0001 12Z" stroke="#4F4EA6" stroke-width="1.5" stroke-linecap="round" stroke-linejoin="round"/>
</svg>
