<svg width="24" height="24" viewBox="0 0 24 24" fill="none" xmlns="http://www.w3.org/2000/svg">
<rect x="0.5" y="0.5" width="23" height="23" rx="11.5" fill="white"/>
<rect x="0.5" y="0.5" width="23" height="23" rx="11.5" stroke="#EAEAF5"/>
<path d="M7.59961 16.7996C7.90706 16.4553 9.34697 14.8707 9.76895 14.8707H14.2305C14.842 14.8707 16.0903 16.1842 16.3996 16.6472M18.3996 11.9996C18.3996 15.5342 15.5342 18.3996 11.9996 18.3996C8.46499 18.3996 5.59961 15.5342 5.59961 11.9996C5.59961 8.46499 8.46499 5.59961 11.9996 5.59961C15.5342 5.59961 18.3996 8.46499 18.3996 11.9996ZM14.2922 9.81825C14.2922 8.59724 13.2614 7.59961 11.9998 7.59961C10.7382 7.59961 9.70743 8.59724 9.70743 9.81825C9.70743 11.0393 10.7382 12.0369 11.9998 12.0369C13.2614 12.0369 14.2922 11.0393 14.2922 9.81825Z" stroke="#4F4EA6"/>
</svg>
